<svg xmlns="http://www.w3.org/2000/svg" width="64" height="64" viewBox="0 0 64 64" fill="none"><clipPath id="r"><rect width="64" height="64" rx="18"/></clipPath><g clip-path="url(#r)"><rect width="64" height="64" fill="#DE2910"/><g transform="translate(32 32)"><g fill="#fff"><path d="M0-13C2.6-8.2 7.2-6.3 12.6-6.7C9.1-2.6 8.5 2.3 10.9 7.3C6 5.6 1.7 6.9-1.9 10.9C-1.7 5.5-4.1 1.2-8.6-1.9C-3.4-2.7 0.1-5.9 0-13Z" transform="rotate(0) scale(0.52)"/><path d="M0-13C2.6-8.2 7.2-6.3 12.6-6.7C9.1-2.6 8.5 2.3 10.9 7.3C6 5.6 1.7 6.9-1.9 10.9C-1.7 5.5-4.1 1.2-8.6-1.9C-3.4-2.7 0.1-5.9 0-13Z" transform="rotate(72) scale(0.52)"/><path d="M0-13C2.6-8.2 7.2-6.3 12.6-6.7C9.1-2.6 8.5 2.3 10.9 7.3C6 5.6 1.7 6.9-1.9 10.9C-1.7 5.5-4.1 1.2-8.6-1.9C-3.4-2.7 0.1-5.9 0-13Z" transform="rotate(144) scale(0.52)"/><path d="M0-13C2.6-8.2 7.2-6.3 12.6-6.7C9.1-2.6 8.5 2.3 10.9 7.3C6 5.6 1.7 6.9-1.9 10.9C-1.7 5.5-4.1 1.2-8.6-1.9C-3.4-2.7 0.1-5.9 0-13Z" transform="rotate(216) scale(0.52)"/><path d="M0-13C2.6-8.2 7.2-6.3 12.6-6.7C9.1-2.6 8.5 2.3 10.9 7.3C6 5.6 1.7 6.9-1.9 10.9C-1.7 5.5-4.1 1.2-8.6-1.9C-3.4-2.7 0.1-5.9 0-13Z" transform="rotate(288) scale(0.52)"/></g></g></g></svg>