<svg xmlns="http://www.w3.org/2000/svg" width="64" height="64" viewBox="0 0 64 64" fill="none"><rect width="64" height="64" rx="18" fill="#0F0F14"/><path d="M38 14.5C39.5 19.3 42.3 22.7 47.2 24.4V30.7C43.9 30.7 41 29.8 38.3 28V40.2C38.3 48.3 31.6 54 23.4 54C15.2 54 9 47.8 9 40.2C9 32.1 15.7 26.5 23.4 26.5C24.5 26.5 25.5 26.6 26.5 26.9V33.1C25.5 32.8 24.5 32.7 23.4 32.7C18.9 32.7 15.5 36.2 15.5 40.2C15.5 44.4 18.8 47.8 23.4 47.8C27.8 47.8 31.2 44.3 31.2 40.2V14.5H38Z" fill="#25F4EE"/><path d="M40.5 16.5C42.1 20 44.8 22.7 48.5 24V28.8C45.2 28.8 42.2 27.8 39.7 26.1V40.2C39.7 48.3 33.1 54 24.9 54C21.8 54 18.9 53.1 16.5 51.4C18.6 52.5 20.9 53.1 23.4 53.1C31.6 53.1 38.3 47.4 38.3 39.3V28C41 29.8 43.9 30.7 47.2 30.7V24.4C44.5 23.4 42.2 20.9 40.5 16.5Z" fill="#FE2C55" opacity="0.95"/><path d="M31.2 14.5V39.8C31.2 43.9 27.9 47.4 23.4 47.4C21.1 47.4 19 46.5 17.5 45C18.9 47 21.1 48.2 23.8 48.2C28.2 48.2 31.6 44.7 31.6 40.6V15H38C37.8 14.8 37.8 14.7 37.7 14.5H31.2Z" fill="white" opacity="0.95"/></svg>