<svg xmlns="http://www.w3.org/2000/svg" width="64" height="64" viewBox="0 0 64 64" fill="none"><rect width="64" height="64" rx="18" fill="#111827"/><path d="M37 16C38.2 20.1 40.7 23.2 44.8 24.8V30.2C42 30.2 39.4 29.4 37 27.9V38.7C37 46.4 30.7 52 22.9 52C15 52 9 46.1 9 38.7C9 30.9 15.3 25.4 22.9 25.4C23.8 25.4 24.7 25.5 25.5 25.7V31.4C24.7 31.1 23.8 31 22.9 31C18.7 31 15.4 34.3 15.4 38.7C15.4 43 18.6 46.3 22.9 46.3C27.1 46.3 30.4 43 30.4 38.7V12H37V16Z" fill="#25F4EE"/><path d="M39.5 16.6C40.8 19.2 42.9 21.1 45.7 22.2V27.2C42.7 27.2 40.1 26.2 37.8 24.4V38.7C37.8 46.4 31.6 52 23.8 52C20.9 52 18.2 51.2 16 49.7C18 51.2 20.4 52 22.9 52C30.7 52 37 46.4 37 38.7V27.9C39.4 29.4 42 30.2 44.8 30.2V24.8C42.7 24 40.9 22.6 39.5 20.8V16.6Z" fill="#FE2C55" opacity="0.95"/><path d="M37 12V16C37.2 16.8 37.5 17.6 37.8 18.4V24.4C40.1 26.2 42.7 27.2 45.7 27.2V22.2C42.9 21.1 40.8 19.2 39.5 16.6V12H37ZM22.9 25.4C15.3 25.4 9 30.9 9 38.7C9 43.6 11.4 47.8 15 50.2C12.5 47.7 11 44.3 11 40.5C11 32.7 17.3 27.2 24.9 27.2C25.8 27.2 26.7 27.3 27.5 27.5V25.7C24.7 25.1 23.8 25.4 22.9 25.4Z" fill="white"/></svg>