<svg xmlns="http://www.w3.org/2000/svg" width="64" height="64" viewBox="0 0 64 64" fill="none"><clipPath id="r"><rect width="64" height="64" rx="18"/></clipPath><g clip-path="url(#r)"><rect width="64" height="64" fill="#fff"/><path d="M0 0H64V4.92H0zM0 9.85H64v4.92H0zM0 19.69H64v4.92H0zM0 29.54H64v4.92H0zM0 39.38H64v4.92H0zM0 49.23H64v4.92H0zM0 59.08H64V64H0z" fill="#DC2626"/><rect width="30" height="27.5" fill="#1D4ED8"/><g fill="#fff"><circle cx="4.8" cy="5" r="1.1"/><circle cx="10.3" cy="5" r="1.1"/><circle cx="15.8" cy="5" r="1.1"/><circle cx="21.3" cy="5" r="1.1"/><circle cx="26.8" cy="5" r="1.1"/><circle cx="7.5" cy="9.6" r="1.1"/><circle cx="13" cy="9.6" r="1.1"/><circle cx="18.5" cy="9.6" r="1.1"/><circle cx="24" cy="9.6" r="1.1"/><circle cx="4.8" cy="14.2" r="1.1"/><circle cx="10.3" cy="14.2" r="1.1"/><circle cx="15.8" cy="14.2" r="1.1"/><circle cx="21.3" cy="14.2" r="1.1"/><circle cx="26.8" cy="14.2" r="1.1"/><circle cx="7.5" cy="18.8" r="1.1"/><circle cx="13" cy="18.8" r="1.1"/><circle cx="18.5" cy="18.8" r="1.1"/><circle cx="24" cy="18.8" r="1.1"/><circle cx="4.8" cy="23.4" r="1.1"/><circle cx="10.3" cy="23.4" r="1.1"/><circle cx="15.8" cy="23.4" r="1.1"/><circle cx="21.3" cy="23.4" r="1.1"/><circle cx="26.8" cy="23.4" r="1.1"/></g></g></svg>